<svg width="52" height="84" viewBox="0 0 52 84" fill="none" xmlns="http://www.w3.org/2000/svg">
<path d="M49.726 1.83663C51.1386 3.49124 46.5402 6.5247 37.5537 13.4189C33.8461 16.2785 30.7112 19.4832 28.2365 22.9435C25.5315 22.0314 22.8265 21.098 20.0915 20.1859C19.6407 20.1859 26.8239 10.0248 31.753 7.45807C43.2641 0.160806 48.7643 0.457784 49.726 1.83663Z" fill="white"/>
<path d="M51.4986 2.51519C51.5027 2.08824 51.336 1.66915 51.0177 1.30605C50.7529 0.977104 50.3851 0.695245 49.9423 0.482004C49.4995 0.268763 48.9936 0.129787 48.463 0.0756992C46.1788 -0.242496 40.829 0.181759 30.6102 6.56687C26.162 8.98515 18.017 19.1037 18.5881 20.3765L18.7685 21.0341L19.5499 21.1826L28.867 24.3434L29.5282 23.4312C31.9919 20.0476 35.1071 16.9208 38.7852 14.1399L42.2416 11.5095C48.2827 6.84264 51.4986 4.40314 51.4986 2.51519ZM21.804 19.6341C23.3368 17.2582 28.8369 10.1943 32.5037 8.20027C42.0913 2.21821 46.5395 2.0485 47.5313 2.13335C48.0122 2.13335 48.2226 2.26063 48.2527 2.30306C48.9139 3.04551 44.4356 6.41838 39.747 9.98216L36.4409 12.7186C32.9415 15.4001 29.914 18.3702 27.4243 21.5644L21.804 19.6341Z" fill="#E4C27C"/>
<path d="M38.8462 17.4293C35.3386 20.6421 32.5604 24.2203 30.611 28.0358C30.3485 28.7422 29.7832 29.374 28.9923 29.8449C28.2014 30.3158 27.2237 30.6026 26.1929 30.6662C22.1355 30.4328 18.0479 30.3268 13.9604 30.3055C11.7664 30.3055 10.5041 27.9721 11.7063 25.3205C14.6527 18.8224 19.381 12.7967 25.6219 7.58645C28.2668 5.46515 31.9335 4.78633 33.0455 6.12275C35.1494 8.62588 37.4036 11.0229 39.808 13.3564C40.2291 14.0273 40.3624 14.7707 40.1915 15.4945C40.0206 16.2184 39.5529 16.891 38.8462 17.4293Z" fill="white"/>
<path d="M41.854 14.6505C41.8748 13.9499 41.5917 13.2615 41.0425 12.6777C38.6681 10.3443 36.414 7.94718 34.3102 5.50769C34.0053 5.13504 33.5674 4.82533 33.04 4.60944C32.5126 4.39356 31.9143 4.27905 31.3046 4.27734C29.9482 4.30069 28.6166 4.53982 27.4093 4.9769C26.202 5.41398 25.15 6.03773 24.3318 6.80169C17.9983 12.1263 13.1998 18.273 10.2058 24.8964C9.73595 25.7502 9.55118 26.6689 9.66585 27.5813C9.78052 28.4936 10.1916 29.3751 10.867 30.1572C11.2002 30.5033 11.6483 30.7867 12.1721 30.9826C12.6959 31.1786 13.2797 31.2812 13.8726 31.2815C17.9 31.2815 21.9574 31.4087 25.8947 31.6421C27.2708 31.6169 28.5987 31.2793 29.6815 30.6793C30.7643 30.0794 31.5443 29.2491 31.9057 28.3116C33.8044 24.6275 36.5124 21.1771 39.9305 18.087C41.09 17.1221 41.7661 15.9142 41.854 14.6505ZM12.7304 27.251C12.736 26.6727 12.8782 26.0992 13.1512 25.554C16.0302 19.1883 20.6565 13.2849 26.7663 8.18053C27.2733 7.66043 27.9385 7.22676 28.7133 6.91116C29.488 6.59555 30.3528 6.40596 31.2445 6.35621C31.6653 6.35621 31.7554 6.4835 31.7855 6.52592C33.9495 9.05027 36.2337 11.511 38.6381 13.8656C39.2392 14.4596 38.8485 15.7111 37.7365 16.7294C34.1276 20.0008 31.2676 23.6513 29.2608 27.548C28.6597 28.6935 27.3974 29.542 26.2553 29.4784C22.1979 29.245 18.0503 29.139 13.9327 29.1177C13.805 29.1186 13.6792 29.0954 13.5683 29.0507C13.4574 29.006 13.3654 28.9413 13.3015 28.8632C12.8992 28.3746 12.7012 27.8157 12.7304 27.251Z" fill="#E4C27C"/>
<path d="M34.8493 27.0809C32.0484 31.781 30.6174 36.8311 30.6416 41.93C30.7543 42.8841 30.4484 43.8395 29.7656 44.6668C29.0828 45.494 28.0561 46.153 26.8246 46.5544C21.4918 47.7258 16.2456 49.0852 11.1057 50.6273C8.37067 51.5183 4.94434 48.9091 4.64379 44.921C3.89785 35.3325 6.62876 25.7682 12.5784 17.132C15.103 13.5046 19.7917 11.9773 21.8054 13.5683C25.5977 16.444 29.6112 19.1704 33.8275 21.7352C34.7344 22.4525 35.3163 23.3449 35.4985 24.2976C35.6806 25.2503 35.4545 26.2197 34.8493 27.0809Z" fill="white"/>
<path d="M37.2537 24.6423C37.291 23.9471 37.1172 23.2542 36.744 22.6103C36.3707 21.9664 35.8067 21.3862 35.0897 20.9088C30.8876 18.3554 26.8749 15.6506 23.0676 12.8054C22.5795 12.4311 21.9658 12.1494 21.283 11.9863C20.6003 11.8232 19.8703 11.7839 19.1604 11.8721C17.436 12.1879 15.8385 12.7813 14.4933 13.6057C13.148 14.4301 12.0913 15.463 11.4061 16.6238C5.34236 25.4245 2.55971 35.1716 3.32131 44.9431C3.31537 46.1721 3.71086 47.3856 4.47709 48.4893C5.24332 49.593 6.35963 50.5572 7.73939 51.307C8.35396 51.5869 9.05741 51.7548 9.78657 51.7955C10.5157 51.8362 11.2478 51.7486 11.9171 51.5403C16.9847 50.009 22.1611 48.6637 27.4256 47.5099C28.9981 47.0461 30.3205 46.241 31.2013 45.2112C32.0821 44.1814 32.4756 42.9805 32.3246 41.7824C32.2713 36.9083 33.5998 32.076 36.2318 27.5697C36.847 26.6521 37.1945 25.6566 37.2537 24.6423ZM6.17655 41.8036C6.16049 33.402 8.86409 25.1089 14.0811 17.5571C14.5579 16.7102 15.2964 15.9489 16.2427 15.3288C17.1889 14.7086 18.3191 14.2452 19.5511 13.9721C19.7791 13.9294 20.0192 13.9304 20.2465 13.9751C20.4737 14.0199 20.6798 14.1068 20.8435 14.2267C24.7146 17.1399 28.8082 19.9017 33.1061 22.4998C33.7822 23.0899 34.1923 23.8095 34.2833 24.5658C34.3744 25.322 34.1423 26.0801 33.617 26.7424C30.7502 31.5278 29.2783 36.6716 29.2891 41.8672C29.401 42.6122 29.1947 43.3638 28.6966 44.0253C28.1985 44.6869 27.4314 45.2281 26.4939 45.5795C21.1741 46.7462 15.8543 48.125 10.6548 49.6736C10.4422 49.7655 10.1977 49.8141 9.94846 49.8141C9.69918 49.8141 9.45475 49.7655 9.24216 49.6736C8.27687 49.1002 7.50587 48.3815 6.98576 47.5702C6.46566 46.759 6.20967 45.8758 6.23663 44.9855C6.0563 43.8188 6.02627 42.8218 6.02627 41.8036H6.17655Z" fill="#E4C27C"/>
<path d="M49.726 81.7671C51.1386 80.1125 46.5402 77.079 37.5537 70.1848C33.8461 67.3252 30.7112 64.1205 28.2365 60.6602C25.5315 61.5723 22.8265 62.5057 20.0915 63.4179C19.6407 63.4179 26.8239 73.5789 31.753 76.1456C43.2641 83.4429 48.7643 83.1247 49.726 81.7671Z" fill="white"/>
<path d="M51.4996 81.0899C51.4996 79.2019 48.2837 76.8473 42.1224 72.0956L38.666 69.4652C34.9879 66.6843 31.8727 63.5575 29.409 60.1739L28.7478 59.2617L19.4607 62.4224L18.6793 62.5497L18.4689 63.2073C18.0481 64.5437 26.163 74.6199 30.6713 77.0806C40.83 83.4445 46.1798 83.8475 48.464 83.4445C48.9966 83.3866 49.5034 83.2438 49.9461 83.0269C50.3888 82.81 50.7556 82.5248 51.0187 82.1929C51.3204 81.8637 51.4869 81.4819 51.4996 81.0899ZM27.4554 61.9982C29.9367 65.1961 32.9649 68.1669 36.472 70.844L39.9283 73.4744C44.617 77.0382 49.0952 80.4111 48.434 81.1535C48.224 81.2611 47.9721 81.3203 47.7126 81.3232C46.6006 81.3232 42.1524 81.3232 32.685 75.2987C28.8379 73.1774 23.3979 66.1983 21.8952 63.8225L27.4554 61.9982Z" fill="#E4C27C"/>
<path d="M38.8462 66.1774C35.3387 62.9646 32.5604 59.3864 30.611 55.5709C30.3276 54.8803 29.7532 54.2669 28.964 53.8122C28.1749 53.3576 27.2084 53.0831 26.1929 53.0254C22.1355 53.2587 18.0479 53.3648 13.9604 53.386C11.7664 53.386 10.5041 55.7194 11.7063 58.3711C14.6527 64.8691 19.381 70.8948 25.6219 76.1051C28.2668 78.3325 31.9335 78.9052 33.0455 77.5688C35.1494 75.0657 37.4036 72.6686 39.808 70.3352C40.2552 69.6537 40.4025 68.8933 40.2311 68.1521C40.0596 67.411 39.5772 66.7231 38.8462 66.1774Z" fill="white"/>
<path d="M41.852 68.9545C41.7832 67.7029 41.1516 66.4993 40.0486 65.518C36.6303 62.4202 33.9224 58.9628 32.0239 55.2721C31.6657 54.3351 30.8857 53.5057 29.8015 52.9088C28.7173 52.312 27.3876 51.98 26.0128 51.9629C21.9854 52.1962 17.928 52.3023 13.9907 52.3235C13.3979 52.3238 12.8141 52.4264 12.2903 52.6223C11.7664 52.8183 11.3184 53.1017 10.9852 53.4478C10.3097 54.2299 9.89869 55.1113 9.78401 56.0237C9.66934 56.9361 9.85411 57.8548 10.324 58.7086C13.345 65.3369 18.1745 71.484 24.5402 76.8033C25.3584 77.5672 26.4104 78.191 27.6177 78.6281C28.825 79.0652 30.1565 79.3043 31.513 79.3276C32.1243 79.3196 32.7223 79.2001 33.2489 78.9808C33.7755 78.7615 34.2129 78.4498 34.5185 78.0761C36.5923 75.6578 38.8464 73.2395 41.1908 70.9485C41.6968 70.3477 41.9277 69.6514 41.852 68.9545ZM37.6743 66.8332C38.1903 67.2115 38.5476 67.6834 38.7068 68.1964C38.866 68.7094 38.8207 69.2434 38.576 69.7394C36.1715 72.0728 33.8873 74.5335 31.7534 77.0366C31.7534 77.0366 31.7534 77.2064 31.1823 77.2276C30.3061 77.1767 29.4563 76.9907 28.693 76.6828C27.9296 76.375 27.2712 75.9527 26.7642 75.4457C20.6725 70.3314 16.0666 64.4208 13.2093 58.051C12.9005 57.5153 12.7568 56.9394 12.7879 56.3615C12.819 55.7836 13.0241 55.217 13.3896 54.6994C13.6601 54.4236 13.9006 54.4448 13.9907 54.4448C18.1384 54.4448 22.286 54.2963 26.3735 54.0842C27.3954 54.0842 28.6577 54.8479 29.3791 56.0146C31.3241 59.8987 34.1234 63.5424 37.6743 66.812V66.8332Z" fill="#E4C27C"/>
<path d="M34.8496 56.5241C32.0486 51.824 30.6176 46.7739 30.6418 41.675C30.7521 40.7184 30.4457 39.7608 29.7635 38.9306C29.0813 38.1003 28.056 37.4369 26.8248 37.0294C21.483 35.8769 16.2354 34.5172 11.1059 32.9565C8.37088 32.0868 4.94455 34.6959 4.644 38.684C3.90073 48.2724 6.6315 57.8362 12.5786 66.473C15.1032 70.1004 19.7919 71.6278 21.8056 70.0368C25.598 67.1611 29.6114 64.4346 33.8277 61.8698C34.7346 61.1525 35.3166 60.2601 35.4987 59.3074C35.6808 58.3547 35.4547 57.3854 34.8496 56.5241Z" fill="white"/>
<path d="M37.2532 58.9669C37.2358 57.9809 36.9395 57.0072 36.3816 56.1031C33.6037 51.5647 32.211 46.6642 32.2941 41.7207C32.4162 40.523 31.9957 39.3289 31.0935 38.3109C30.1914 37.2928 28.8541 36.5035 27.2748 36.0569C21.9757 34.9054 16.7686 33.5529 11.6762 32.0052C11.0124 31.8075 10.2903 31.7273 9.57258 31.7717C8.85491 31.816 8.16348 31.9836 7.55856 32.2597C6.17363 33.0062 5.05358 33.9697 4.28682 35.0742C3.52005 36.1786 3.12758 37.3938 3.14044 38.6236C2.37617 48.3952 5.159 58.1428 11.2253 66.943C11.9105 68.1037 12.9671 69.1367 14.3124 69.9611C15.6577 70.7854 17.2551 71.3788 18.9796 71.6947C19.6967 71.784 20.4342 71.7433 21.1229 71.5763C21.8116 71.4093 22.4289 71.1216 22.9168 70.7401C26.7232 67.9076 30.736 65.217 34.9389 62.6792C35.6778 62.2128 36.2666 61.6403 36.6658 60.9999C37.0649 60.3596 37.2652 59.6664 37.2532 58.9669ZM33.6165 56.8456C34.1418 57.5078 34.3739 58.266 34.2828 59.0222C34.1918 59.7784 33.7817 60.498 33.1055 61.0882C28.8178 63.6792 24.7342 66.4339 20.8731 69.34C20.708 69.4655 20.498 69.5573 20.2654 69.6058C20.0327 69.6543 19.7858 69.6578 19.5506 69.6158C18.3186 69.3428 17.1884 68.8794 16.2421 68.2592C15.2959 67.639 14.5574 66.8778 14.0806 66.0308C8.23499 57.5542 5.55547 48.1638 6.29625 38.7509C6.27165 37.864 6.52886 36.9844 7.04896 36.1769C7.56906 35.3693 8.33883 34.6542 9.30178 34.0841C9.49694 33.9803 9.72695 33.914 9.96928 33.8916C10.2116 33.8693 10.458 33.8918 10.6843 33.9568C15.8075 35.5535 21.0441 36.9625 26.3732 38.1782C27.2971 38.539 28.0512 39.0827 28.5425 39.7424C29.0338 40.402 29.2409 41.1487 29.1383 41.8904C29.1308 47.0858 30.6026 52.2292 33.4662 57.0153L33.6165 56.8456Z" fill="#E4C27C"/>
<path d="M34.3983 47.8265C33.4375 43.8316 33.4375 39.7511 34.3983 35.7563C34.8102 34.5397 34.6887 33.2635 34.05 32.0968C33.4113 30.93 32.2855 29.9277 30.8217 29.2227C25.0166 27.1166 19.3688 24.8014 13.9006 22.286C10.6846 20.6951 5.18455 23.6224 3.50146 28.9469C0.826337 37.413 0.826337 46.191 3.50146 54.657C5.18455 59.9815 10.6846 62.9089 13.9006 61.3179C19.3688 58.8026 25.0166 56.4873 30.8217 54.3813C32.288 53.6727 33.415 52.6667 34.0536 51.4963C34.6923 50.3258 34.8125 49.0461 34.3983 47.8265Z" fill="white"/>
<path d="M36.0511 49.1857C36.0633 48.6736 36.0028 48.1619 35.8707 47.6583C34.9391 43.7828 34.9391 39.8243 35.8707 35.9488C36.3549 34.511 36.1959 33.0026 35.4155 31.6312C34.635 30.2598 33.2715 29.0928 31.5127 28.2909C25.7721 26.1696 20.1218 23.8786 14.7118 21.3967C13.9863 21.0585 13.1522 20.8541 12.2859 20.8022C11.4195 20.7503 10.5486 20.8526 9.75272 21.0997C7.71513 21.8579 5.95605 22.9411 4.61522 24.263C3.27438 25.585 2.3887 27.1094 2.02849 28.7152C-0.676163 37.3363 -0.676163 46.2708 2.02849 54.892C2.3887 56.4977 3.27438 58.0221 4.61522 59.3441C5.95605 60.666 7.71513 61.7492 9.75272 62.5074C10.5602 62.7551 11.4429 62.8558 12.3198 62.8002C13.1968 62.7446 14.0399 62.5345 14.7719 62.1892C20.162 59.6931 25.7405 57.4058 31.4827 55.3374C32.9562 54.6957 34.1579 53.786 34.9617 52.7036C35.7655 51.6212 36.1418 50.4061 36.0511 49.1857ZM2.99028 41.8036C2.97915 37.5221 3.64444 33.2531 4.97389 29.0758C5.25698 27.8059 5.94517 26.598 6.98649 25.5433C8.02781 24.4887 9.39505 23.6148 10.9849 22.9876C11.3195 22.8538 11.6974 22.7834 12.082 22.7834C12.4665 22.7834 12.8445 22.8538 13.179 22.9876C18.7007 25.5322 24.4091 27.8688 30.2804 29.9879C31.4585 30.5944 32.3536 31.435 32.8515 32.4023C33.3494 33.3696 33.4274 34.4197 33.0756 35.4184C32.0839 39.5325 32.0839 43.7352 33.0756 47.8493C33.4284 48.85 33.3477 49.9025 32.8441 50.8706C32.3404 51.8387 31.4369 52.6779 30.2504 53.2798C24.3998 55.4546 18.7118 57.8407 13.2091 60.4286C12.8786 60.5826 12.497 60.6735 12.1018 60.692C11.7066 60.7106 11.3114 60.6564 10.9549 60.5346C9.3614 59.9053 7.99192 59.0281 6.9504 57.9696C5.90887 56.911 5.22266 55.6989 4.94385 54.4253C3.63191 50.2822 2.97671 46.0489 2.99028 41.8036Z" fill="#E4C27C"/>
<path d="M7.19824 40.5918C7.19824 41.9703 7.19824 43.3701 7.19824 44.8335V40.5918Z" fill="white"/>
<path d="M8.67089 44.6892C8.5507 43.2753 8.5507 41.918 8.67089 40.6172H5.66602C5.66602 42.0169 5.66602 43.4591 5.66602 44.8589L8.67089 44.6892Z" fill="#E4C27C"/>
<path d="M20.0612 29.9879C18.4382 29.2525 16.8452 28.4888 15.2824 27.6969C13.1485 26.5514 9.51175 28.6727 8.36965 32.5122C7.82502 34.439 7.44363 36.387 7.22754 38.3458" fill="white"/>
<path d="M20.8725 29.0741C19.2796 28.3529 17.7167 27.6104 16.1538 26.9528C15.6358 26.6774 15.0244 26.5031 14.3808 26.4472C13.7372 26.3914 13.0841 26.456 12.487 26.6346C10.9733 27.2142 9.67686 28.0398 8.70478 29.0431C7.73269 30.0464 7.11292 31.1987 6.89676 32.4045C6.32541 34.3717 5.93388 36.3627 5.72461 38.3654L8.73014 38.5351C8.91724 36.6174 9.28881 34.7109 9.84221 32.8288C9.96821 31.9712 10.3659 31.1446 11.0058 30.4102C11.6457 29.6759 12.5115 29.0525 13.539 28.5862C13.6659 28.5319 13.8114 28.5032 13.9598 28.5032C14.1081 28.5032 14.2537 28.5319 14.3805 28.5862C16.0035 29.4135 17.6265 30.1772 19.2495 30.9196L20.8725 29.0741Z" fill="#E4C27C"/>
</svg>
