<svg width="57" height="85" viewBox="0 0 57 85" fill="none" xmlns="http://www.w3.org/2000/svg">
<path d="M45.5153 70.87L48.4795 76.0509L46.2092 77.3498L43.2451 72.1688" fill="white"/>
<path d="M42.4195 72.642L45.858 78.6518L49.7793 76.4083L46.3408 70.3984L44.8031 71.2783L47.3711 75.7668L46.5407 76.2419L43.9727 71.7533L42.4195 72.642Z" fill="#E4C27C"/>
<path d="M49.4794 80.4313C48.9047 80.7602 48.2223 80.8463 47.5825 80.6707C46.9426 80.4951 46.3976 80.0723 46.0674 79.4952C45.7373 78.9181 45.6489 78.234 45.8218 77.5934C45.9948 76.9528 46.4148 76.4082 46.9895 76.0794C47.5643 75.7505 48.2466 75.6645 48.8865 75.84C49.5264 76.0156 50.0713 76.4384 50.4015 77.0155C50.7317 77.5926 50.82 78.2767 50.6471 78.9173C50.4742 79.5579 50.0542 80.1025 49.4794 80.4313Z" fill="white"/>
<path d="M45.2419 79.9683C45.6979 80.7653 46.4504 81.3492 47.3341 81.5916C48.2177 81.8341 49.16 81.7152 49.9537 81.2611C50.7474 80.807 51.3274 80.0549 51.5662 79.1703C51.805 78.2857 51.683 77.341 51.227 76.544C50.7711 75.747 50.0185 75.1631 49.1349 74.9207C48.2512 74.6782 47.3089 74.7971 46.5152 75.2512C45.7216 75.7053 45.1415 76.4574 44.9027 77.342C44.6639 78.2266 44.7859 79.1713 45.2419 79.9683ZM49.7308 77.4001C49.9587 77.7985 50.0197 78.2709 49.9003 78.7132C49.7809 79.1555 49.4909 79.5316 49.0941 79.7586C48.6972 79.9856 48.2261 80.0451 47.7843 79.9239C47.3425 79.8027 46.9662 79.5107 46.7382 79.1122C46.5102 78.7137 46.4492 78.2414 46.5686 77.7991C46.688 77.3568 46.978 76.9807 47.3749 76.7537C47.7717 76.5266 48.2429 76.4672 48.6847 76.5884C49.1265 76.7096 49.5028 77.0016 49.7308 77.4001Z" fill="#E4C27C"/>
<path d="M19.4919 13.416L6.90253 20.6188L37.7133 74.4711C38.1705 75.2702 41.3725 74.3418 44.8547 72.3496C48.3369 70.3573 50.7768 68.097 50.3027 67.2683L19.4919 13.416Z" fill="white"/>
<path d="M5.80935 20.1438L37.1495 74.9214C38.3219 76.9705 43.7101 74.1045 45.3292 73.1782C46.9483 72.2519 52.1496 69.0592 50.9772 67.0101L19.6371 12.2325L5.80935 20.1438ZM38.5232 73.9384L8.12601 20.809L19.0073 14.5834L49.4045 67.7128C48.0794 69.394 46.3938 70.7489 44.4711 71.6785C42.69 72.8663 40.6633 73.6354 38.5377 73.93L38.5232 73.9384Z" fill="#E4C27C"/>
<path d="M11.9065 15.006C3.65484 19.7271 5.23781 22.4939 13.5641 17.9032C21.8903 13.3125 20.1978 10.32 11.9065 15.006Z" fill="white"/>
<path d="M5.9311 20.3523C7.47815 23.4966 21.6813 15.3704 19.7548 12.4433C18.2223 9.29075 3.99584 17.4101 5.9311 20.3523ZM18.0031 13.4455C15.173 16.3274 11.616 18.3625 7.69739 19.3418C10.5275 16.4599 14.0845 14.4248 18.0031 13.4455Z" fill="#E4C27C"/>
<path d="M13.6211 15.1251L10.6569 9.94419L8.38666 11.2431L11.3508 16.424" fill="white"/>
<path d="M7.20509 11.0914L10.525 16.894L12.0781 16.0054L9.59859 11.6716L10.429 11.1965L12.9085 15.5303L14.4463 14.6505L11.1264 8.84787L7.20509 11.0914Z" fill="#E4C27C"/>
<path d="M7.38795 6.86257C6.81322 7.1914 6.3932 7.73602 6.22027 8.37661C6.04735 9.0172 6.1357 9.70128 6.46588 10.2784C6.79606 10.8555 7.34102 11.2783 7.9809 11.4539C8.62077 11.6295 9.30313 11.5434 9.87786 11.2145C10.4526 10.8857 10.8726 10.3411 11.0455 9.70051C11.2185 9.05992 11.1301 8.37583 10.7999 7.79873C10.4698 7.22162 9.92479 6.79878 9.28492 6.62322C8.64505 6.44766 7.96268 6.53375 7.38795 6.86257Z" fill="white"/>
<path d="M5.64034 10.7515C6.09631 11.5485 6.84889 12.1324 7.73252 12.3748C8.61615 12.6173 9.55846 12.4984 10.3521 12.0443C11.1458 11.5902 11.7259 10.8381 11.9647 9.95349C12.2034 9.06886 12.0814 8.12416 11.6255 7.3272C11.1695 6.53024 10.4169 5.94631 9.5333 5.70387C8.64967 5.46142 7.70736 5.58033 6.91368 6.03442C6.12001 6.48851 5.53997 7.24059 5.30117 8.12522C5.06237 9.00984 5.18438 9.95454 5.64034 10.7515ZM10.1292 8.18328C10.3572 8.58176 10.4182 9.05411 10.2988 9.49642C10.1794 9.93873 9.88936 10.3148 9.49252 10.5418C9.09568 10.7689 8.62453 10.8283 8.18271 10.7071C7.7409 10.5859 7.36461 10.2939 7.13663 9.89543C6.90864 9.49695 6.84764 9.0246 6.96704 8.58228C7.08644 8.13997 7.37646 7.76393 7.7733 7.53689C8.17014 7.30984 8.64129 7.25039 9.0831 7.37161C9.52492 7.49283 9.90121 7.7848 10.1292 8.18328Z" fill="#E4C27C"/>
<path d="M13.0908 15.6333L11.7324 13.259C11.3696 12.6249 12.6232 11.9076 12.9706 12.5506L14.3289 14.9249C14.3983 15.0461 14.4143 15.1913 14.3734 15.3285C14.3324 15.4657 14.238 15.5837 14.1107 15.6565C13.7955 15.8956 13.3102 16.0167 13.0908 15.6333Z" fill="#E4C27C"/>
<path d="M10.8217 16.9318L9.46328 14.5576C9.10049 13.9235 10.3384 13.2152 10.7012 13.8494L12.0596 16.2236C12.1257 16.3485 12.1383 16.4956 12.0946 16.6338C12.051 16.772 11.9547 16.8905 11.826 16.964C11.5109 17.2031 11.0256 17.3241 10.8217 16.9318Z" fill="#E4C27C"/>
<path d="M32.8115 41.0046L47.1582 66.0802L45.7135 66.9067L31.3669 41.8311L32.8115 41.0046Z" fill="#E4C27C"/>
<path d="M27.12 31.0572L31.3884 38.5177L29.9438 39.3443L25.6753 31.8838L27.12 31.0572Z" fill="#E4C27C"/>
<path d="M39.0358 9.23339C44.8289 -1.18194 56.8088 4.91154 51.5073 15.6967C47.0095 24.2915 32.4824 36.8126 32.4824 36.8126C32.4824 36.8126 34.4204 18.0164 39.0358 9.23339Z" fill="white"/>
<path d="M52.381 16.0811C58.1379 4.67531 45.0065 -2.97747 38.2184 8.74141C32.9687 19.6202 31.7625 35.8114 31.3993 38.9364C33.6255 36.8925 46.5837 26.3486 52.381 16.0811ZM39.7499 9.5351C45.3931 -0.253735 55.6123 5.92841 50.8495 15.2874C47.3604 21.9547 37.5332 31.1933 33.5649 34.7614C34.2269 29.5183 36.1656 16.3843 39.7341 9.56542L39.7499 9.5351Z" fill="#E4C27C"/>
<path d="M41.12 10.3866C46.887 -0.110272 54.8177 3.82639 49.3639 14.659C44.8353 23.3125 32.3482 37.0117 32.3482 37.0117C32.3482 37.0117 36.4809 19.214 41.12 10.3866Z" fill="white"/>
<path d="M50.084 14.8224C55.7566 3.98267 47.3991 -2.21018 40.5718 9.8928C34.7668 21.8923 32.138 35.0771 30.9052 39.7543C33.9396 36.2411 43.6368 26.1628 50.084 14.8224ZM42.08 10.6744C48.1331 0.377267 53.1011 5.466 48.5757 14.0408C45.3523 20.2004 37.9638 29.0955 34.1997 33.4588C35.6642 27.9037 38.7722 16.8863 42.08 10.6744Z" fill="#E4C27C"/>
<path d="M43.4433 11.5962C49.0882 1.03836 52.635 2.68387 47.0364 13.4583C42.5166 22.0951 32.3079 36.9909 32.3079 36.9909C32.3079 36.9909 38.789 20.4138 43.4433 11.5962Z" fill="white"/>
<path d="M47.7967 13.5446C49.3753 10.2775 52.0167 5.08712 49.8889 3.67755C47.6054 2.49411 43.6129 9.76531 42.8323 11.2212C35.2251 26.6881 32.2728 34.9778 28.7542 43.7413C33.8676 35.9386 39.5824 28.275 47.7967 13.5446ZM49.0251 5.4355C47.9896 11.9951 40.6789 22.2072 36.5813 28.9636C38.8396 23.5747 41.8658 16.6467 44.3498 12.0076C45.4921 9.54829 47.0784 7.31852 49.0251 5.4355Z" fill="#E4C27C"/>
<path d="M28.9063 41.9411L31.7802 36.4493L33.2599 37.2162L30.3859 42.708L28.9063 41.9411Z" fill="#E4C27C"/>
<path d="M32.6294 42.5275L15.5108 75.239C15.1844 75.8627 14.6153 76.3281 13.9286 76.5328C13.242 76.7376 12.494 76.6649 11.8493 76.3308C11.2046 75.9967 10.7159 75.4285 10.4908 74.7512C10.2657 74.0739 10.3226 73.3431 10.649 72.7194L27.7676 40.0079L32.6294 42.5275Z" fill="white"/>
<path d="M16.0644 75.5964L33.6544 41.9841L27.5835 38.8379L9.99356 72.4502C9.73991 72.8639 9.57206 73.3241 9.50043 73.8021C9.4288 74.2801 9.45494 74.7657 9.5772 75.2287C9.69947 75.6917 9.91525 76.1223 10.2111 76.4935C10.507 76.8647 10.8767 77.1687 11.2971 77.3866C11.7176 77.6045 12.1798 77.7316 12.6551 77.76C13.1304 77.7885 13.6085 77.7176 14.0598 77.5518C14.5111 77.3861 14.9259 77.129 15.2784 76.7965C15.6309 76.4641 15.9136 76.0634 16.1088 75.6194L16.0644 75.5964ZM31.3734 42.746L14.5837 74.829C14.4883 75.0629 14.3461 75.275 14.166 75.4519C13.9859 75.6287 13.7721 75.7664 13.5382 75.8559C13.3043 75.9455 13.0555 75.985 12.8079 75.972C12.5602 75.9589 12.3192 75.8935 12.1002 75.78C11.8813 75.6666 11.6892 75.5075 11.5365 75.3131C11.3838 75.1187 11.2737 74.8932 11.2133 74.6511C11.153 74.4091 11.1437 74.1558 11.1861 73.9076C11.2285 73.6594 11.3216 73.4217 11.4594 73.2099L28.2492 41.1268L31.3734 42.746Z" fill="#E4C27C"/>
</svg>
