<svg width="48" height="64" viewBox="0 0 48 64" fill="none" xmlns="http://www.w3.org/2000/svg">
<path d="M16.5453 51.4419V50.2015C16.1467 50.0274 15.7923 49.8316 15.4157 49.6357C14.4915 49.1139 13.6036 48.5323 12.7578 47.8949C10.3108 45.9812 8.33734 43.5474 6.9858 40.7764C5.63426 38.0054 4.93983 34.9694 4.95475 31.8968C4.96968 28.8241 5.69356 25.7948 7.07195 23.0366C8.45034 20.2784 10.4474 17.8632 12.9128 15.9725C13.7569 15.3157 14.6531 14.7263 15.5929 14.21C15.9695 14.0141 16.3017 13.8183 16.7004 13.6442V12.3821C16.6451 11.3746 16.6451 10.3649 16.7004 9.35742C15.6619 9.74606 14.6549 10.2116 13.6881 10.7501C13.3115 10.9459 12.9793 11.1635 12.6249 11.3811C9.08281 13.5644 6.16299 16.5954 4.13909 20.1902C2.11518 23.7849 1.05349 27.8257 1.05349 31.9337C1.05349 36.0418 2.11518 40.0825 4.13909 43.6773C6.16299 47.2721 9.08281 50.3031 12.6249 52.4863L13.6659 53.0956C14.6381 53.6383 15.6529 54.104 16.7004 54.4883C16.593 53.4763 16.5412 52.4593 16.5453 51.4419Z" fill="white"/>
<path d="M0.000488281 31.9246C0.0227273 27.6696 1.13389 23.4883 3.23172 19.7657C5.32954 16.043 8.34665 12.8984 12.0055 10.6213C12.3599 10.4037 12.7364 10.1643 13.1129 9.96848C14.109 9.40884 15.1454 8.92157 16.2139 8.51054L17.5428 7.98828V9.40269C17.4869 10.3884 17.4869 11.3764 17.5428 12.3621V14.2117L16.9226 14.4728C16.6347 14.6034 16.3689 14.7557 16.0809 14.908H15.9038C15.0164 15.4081 14.1652 15.968 13.3566 16.5836C10.8074 18.5604 8.79297 21.1233 7.49102 24.0462C6.18908 26.9691 5.63974 30.162 5.8915 33.3429C6.14325 36.5238 7.18835 39.5949 8.93454 42.2849C10.6807 44.975 13.0743 47.2012 15.9038 48.7671C16.2582 48.963 16.5904 49.137 16.9669 49.3111L17.5428 49.5722V51.4001C17.5428 52.4664 17.5428 53.4456 17.5428 54.3595V55.7522L16.236 55.2517C15.1512 54.8455 14.0997 54.3581 13.0908 53.7937L12.0055 53.1627C8.35748 50.89 5.3474 47.7555 3.25027 44.0455C1.15314 40.3354 0.0358447 36.1682 0.000488281 31.9246ZM15.5051 10.7301C14.9513 10.9912 14.4198 11.2523 13.9103 11.5352C13.4009 11.8181 13.2237 11.9487 12.8915 12.1445C9.48226 14.2481 6.67221 17.1672 4.72447 20.6286C2.77674 24.09 1.75504 27.9804 1.75504 31.9355C1.75504 35.8906 2.77674 39.781 4.72447 43.2424C6.6722 46.7038 9.48226 49.6229 12.8915 51.7265L13.866 52.2923C14.3961 52.5979 14.9434 52.874 15.5051 53.1192V50.7473C15.3204 50.6329 15.128 50.5311 14.9292 50.4426C13.9501 49.9003 13.0169 49.2818 12.1384 48.593C9.57191 46.6075 7.49741 44.0758 6.07103 41.1886C4.64464 38.3014 3.90357 35.1339 3.90357 31.9246C3.90357 28.7153 4.64464 25.5478 6.07103 22.6606C7.49741 19.7734 9.57191 17.2418 12.1384 15.2562C13.0159 14.5726 13.9494 13.9613 14.9292 13.4284L15.1064 13.3196C15.2439 13.2554 15.377 13.1827 15.5051 13.1019V10.7301ZM43.0811 31.2065H44.3658V29.0305L46.0491 31.5112C46.1432 31.6336 46.2248 31.7648 46.2928 31.9029H46.1156V32.795H45.1853V32.3381L44.6094 32.6427L43.0811 31.2065Z" fill="#E4C27C"/>
<path d="M42.3505 34.9493C42.0798 34.332 41.7137 33.7595 41.2652 33.252L40.1134 31.9682L41.2652 30.6843C41.2652 30.532 41.5088 30.4014 41.5974 30.2491C42.4676 29.0546 42.9815 27.6455 43.0814 26.1799V25.4183C43.096 24.4795 42.9843 23.543 42.7492 22.633C42.7065 22.3572 42.6322 22.0872 42.5277 21.8278C42.4514 21.5601 42.3552 21.2983 42.2398 21.0445C41.9476 20.2798 41.5686 19.5498 41.1101 18.8684C38.3857 14.5164 31.6523 11.7746 25.6055 11.7746C22.4616 11.7968 19.3666 12.542 16.5686 13.9506V12.6885C16.5133 11.681 16.5133 10.6713 16.5686 9.66384C19.46 8.51104 22.5515 7.91985 25.672 7.923C29.0921 7.76409 32.5039 8.37781 35.6448 9.717C38.7858 11.0562 41.5723 13.0852 43.7902 15.6479C44.1446 16.0614 44.5876 16.6489 44.8755 17.0623C45.2848 17.7673 45.6545 18.4937 45.983 19.2384L46.2266 19.8476L46.4481 20.4787C46.6475 21.088 46.8025 21.719 46.9354 22.3066V22.4371L47.0905 23.4163C47.1931 24.1808 47.2302 24.9524 47.2012 25.7229C47.2055 26.3211 47.1536 26.9185 47.0462 27.5073V28.1819L46.8468 28.987C46.7595 29.3348 46.6485 29.6765 46.5146 30.0097C46.3164 30.5583 46.0719 31.0896 45.7836 31.5982L45.4736 32.1422V32.2945C45.1793 32.7441 44.8536 33.1731 44.499 33.5784L44.2111 33.883L43.6795 34.3836C43.249 34.5993 42.8051 34.7882 42.3505 34.9493Z" fill="white"/>
<path d="M15.5931 11.0345L15.5931 8.72788L16.1247 8.51029C19.1319 7.32595 22.3426 6.72017 25.5825 6.72593C29.1348 6.55028 32.6803 7.18361 35.9424 8.57647C39.2044 9.96933 42.0946 12.084 44.3873 14.7555C44.8005 15.226 45.1851 15.7201 45.5391 16.2352C45.9814 16.9814 46.3808 17.7515 46.7352 18.5418L47.0009 19.2164L47.2446 19.9127C47.4334 20.4911 47.5887 21.0796 47.7097 21.6753V22.0234C47.7814 22.3098 47.8332 22.6006 47.8648 22.8938C47.9661 23.7022 48.0105 24.5166 47.9977 25.331C47.9797 25.9723 47.9205 26.6119 47.8205 27.2459V27.9422L47.599 28.8126C47.4968 29.1827 47.3711 29.5461 47.2225 29.9007C47.0128 30.5007 46.7535 31.0829 46.4472 31.6415L46.1814 32.0985L46.0042 32.3596C45.7051 32.8566 45.3564 33.3231 44.9632 33.7522L44.6531 34.1004L44.0551 34.6444C43.6746 34.9938 43.2673 35.3139 42.8368 35.6019L41.9287 36.2112L41.4857 35.232C41.2416 34.7033 40.9208 34.2122 40.5333 33.774L38.8721 31.9026L40.7105 29.7266L40.8655 29.5307C41.6452 28.4651 42.1056 27.2062 42.1945 25.8968C42.2147 25.6578 42.2147 25.4176 42.1945 25.1787C42.2066 24.3131 42.1024 23.4497 41.8844 22.611C41.8445 22.3723 41.7776 22.1388 41.6851 21.9146C41.6387 21.6721 41.5566 21.4376 41.4415 21.2183C41.1682 20.4535 40.8038 19.7231 40.3561 19.0423C37.9197 15.1689 31.7179 12.3618 25.5825 12.3618C22.5849 12.3481 19.626 13.0264 16.9442 14.342L15.7481 14.9513V13.6239L15.6374 12.3183L15.5931 11.0345ZM17.4536 9.96823C17.4536 10.7081 17.4536 11.4697 17.4536 12.2966C20.0543 11.2212 22.8494 10.6734 25.6711 10.6863C32.3159 10.6863 39.2487 13.8416 41.9952 18.1936C42.4979 18.9559 42.9068 19.7739 43.2134 20.6308C43.3332 20.8828 43.4296 21.145 43.5013 21.4141C43.6161 21.7183 43.705 22.0313 43.7671 22.3498C44.0015 23.3269 44.1204 24.3272 44.1215 25.331C44.1215 25.6357 44.1215 25.8968 44.1215 26.2014C43.9995 27.8109 43.4243 29.3554 42.4603 30.6623L42.2167 30.9887L41.375 31.9679L41.9952 32.6642C42.2542 32.9589 42.491 33.2716 42.704 33.5999L42.9033 33.4041C43.0837 33.2558 43.254 33.0959 43.4128 32.9253L43.7007 32.6425C44.0132 32.2816 44.2947 31.8958 44.5424 31.4892V31.3586L44.8303 30.8799C45.0989 30.3979 45.3284 29.8958 45.5169 29.3784C45.637 29.0721 45.7405 28.7598 45.827 28.4427L46.0042 27.6811V27.0936C46.0941 26.5245 46.1459 25.9503 46.1593 25.3745C46.1782 24.6475 46.1412 23.9201 46.0485 23.1985L45.8935 22.3063V22.1758C45.762 21.5875 45.5994 21.0065 45.4062 20.4349C45.3636 20.2417 45.3043 20.0525 45.229 19.8691L44.9853 19.2599C44.6755 18.5495 44.3204 17.8591 43.9222 17.1926C43.7007 16.888 43.2798 16.3222 42.9476 15.9305C40.8166 13.4623 38.1358 11.5092 35.113 10.2225C32.0901 8.93571 28.8064 8.34986 25.516 8.51029C22.7254 8.51886 19.9584 9.01244 17.3429 9.96823H17.4536Z" fill="#E4C27C"/>
<path d="M42.3514 20.9358C42.0169 20.1901 41.6398 19.4636 41.2218 18.7598C41.6803 19.4412 42.0592 20.1711 42.3514 20.9358Z" fill="white"/>
<path d="M40.4238 19.1053L41.9965 18.1914C42.4992 18.9536 42.9081 19.7717 43.2147 20.6286L41.5092 21.2814C41.1892 20.5366 40.8269 19.8101 40.4238 19.1053Z" fill="#E4C27C"/>
<path d="M42.8577 22.502C43.0928 23.412 43.2045 24.3485 43.19 25.2873C43.202 24.3486 43.0903 23.4124 42.8577 22.502Z" fill="white"/>
<path d="M41.9724 22.7418L43.7665 22.3066C43.9995 23.2987 44.119 24.3129 44.1215 25.331L42.2825 25.3313C42.2801 24.4594 42.176 23.5905 41.9724 22.7418Z" fill="#E4C27C"/>
<path d="M22.327 33.5557C22.084 33.4084 21.8543 33.241 21.6404 33.0553L21.4853 32.9029C19.2524 30.921 17.419 28.5441 16.0808 25.8961C14.4767 22.7822 13.4066 19.4296 12.9135 15.9734C12.7584 14.8419 12.6477 13.7974 12.6034 12.5788C12.5817 12.1801 12.5817 11.7806 12.6034 11.382V11.0773C12.6011 8.13626 13.0034 5.20839 13.7994 2.3732C13.8725 2.11031 13.9994 1.86484 14.1724 1.65182C14.3454 1.4388 14.5609 1.26272 14.8056 1.13437C15.0502 1.00603 15.319 0.928114 15.5954 0.905403C15.8719 0.882691 16.1501 0.915658 16.4131 1.00229C16.8915 1.16655 17.2894 1.50189 17.5275 1.94145C17.7656 2.38102 17.8264 2.89257 17.6978 3.37419C17.1329 5.32551 16.7912 7.33259 16.6789 9.35828C16.6236 10.3658 16.6236 11.3755 16.6789 12.383V13.645C16.99 17.2777 18.0128 20.817 19.6912 24.0682C20.7771 26.2775 22.2804 28.2639 24.1211 29.9218L24.254 30.0306C24.3596 30.0984 24.4564 30.1788 24.5419 30.2699L24.7191 30.4005C27.826 32.7293 31.7386 33.7684 35.6166 33.2946C37.5159 33.1032 39.3096 32.3436 40.7553 31.1186L41.1318 30.7704L41.309 30.5963L40.1573 31.8802L41.309 33.164C41.7576 33.6715 42.1237 34.244 42.3943 34.8613C40.533 36.0616 38.4067 36.8077 36.1925 37.0374C33.7618 37.3874 31.2846 37.2599 28.9044 36.6622C26.5243 36.0645 24.2886 35.0087 22.327 33.5557Z" fill="white"/>
<path d="M11.5825 11.3819V11.0772C11.5711 8.05541 11.981 5.04629 12.8008 2.13374C12.909 1.75199 13.0952 1.39592 13.3482 1.08726C13.6011 0.778597 13.9155 0.523803 14.272 0.338485C14.6286 0.153167 15.0198 0.0412028 15.4218 0.00940425C15.8239 -0.0223943 16.2283 0.0266431 16.6105 0.153541C17.3073 0.392384 17.8854 0.883134 18.2269 1.52591C18.5684 2.16869 18.6478 2.91521 18.4489 3.61346C17.9094 5.50203 17.5826 7.44304 17.4743 9.40167C17.4743 10.3374 17.4743 11.2948 17.4743 12.3611V13.5796C17.7828 17.091 18.7754 20.5114 20.398 23.6547C21.4419 25.7668 22.8851 27.6647 24.6507 29.2471L24.9829 29.5082L25.1823 29.6605C28.0951 31.8578 31.7703 32.8425 35.4153 32.4023C37.1238 32.2277 38.7418 31.5615 40.0667 30.4874C40.1439 30.4336 40.2113 30.3674 40.2661 30.2916L40.5983 29.9652L41.8829 31.2491L41.2628 31.9671L41.8829 32.6635C42.3993 33.2315 42.8182 33.8783 43.1233 34.5784L43.4334 35.2529L42.8132 35.6881C40.8317 37.0132 38.5506 37.8424 36.1684 38.1035C33.6211 38.4356 31.0321 38.2702 28.55 37.6167C26.0679 36.9632 23.7417 35.8345 21.7048 34.2955C21.4507 34.1281 21.2067 33.9465 20.9739 33.7515L20.7967 33.5774C18.4669 31.5293 16.5573 29.0623 15.1708 26.3094C13.5046 23.1082 12.3823 19.6609 11.8484 16.1039C11.6933 14.9506 11.5825 13.7755 11.5161 12.6222L11.5825 11.3819ZM16.7212 2.91711C16.7231 2.69569 16.6533 2.47941 16.5219 2.29949C16.3906 2.11957 16.2044 1.98531 15.9903 1.91612C15.7128 1.80826 15.4039 1.80826 15.1265 1.91612C14.9897 1.98768 14.8698 2.08664 14.7744 2.20659C14.679 2.32653 14.6103 2.4648 14.5727 2.61247C13.7907 5.36834 13.3958 8.21628 13.3988 11.0772V11.3819C13.3767 11.7515 13.3767 12.122 13.3988 12.4916C13.3988 13.6232 13.5539 14.6677 13.7089 15.8427C14.2108 19.204 15.2734 22.461 16.8541 25.4825C18.1311 28.0334 19.89 30.3226 22.0371 32.2283L22.2143 32.3806C22.3915 32.5111 22.5687 32.6635 22.768 32.794C24.6159 34.1958 26.7276 35.2251 28.9816 35.8225C31.2357 36.42 33.5878 36.574 35.9026 36.2757C37.7152 36.0732 39.4651 35.5026 41.0413 34.6001C40.8728 34.3231 40.6801 34.061 40.4654 33.8167L39.6459 32.9028C38.3899 33.5532 37.0239 33.9735 35.6147 34.1432C31.4973 34.6429 27.3449 33.5332 24.0527 31.0532L23.5432 30.6615C21.5436 28.9145 19.9109 26.8004 18.7368 24.4381C16.9919 21.0893 15.931 17.4375 15.6137 13.6885L15.503 12.3829C15.503 11.2731 15.503 10.2068 15.503 9.24937C15.63 7.16496 15.9865 5.10019 16.5662 3.0912L16.7212 2.91711Z" fill="#E4C27C"/>
<path d="M16.3016 62.9098C16.7808 62.7411 17.1773 62.4006 17.4115 61.9566C17.6457 61.5126 17.7003 60.998 17.5642 60.5161C16.9959 58.5515 16.6614 56.5288 16.5674 54.4885C19.8758 55.7953 23.4341 56.3787 26.9951 56.1983C30.5561 56.018 34.0345 55.0781 37.1885 53.444C43.1246 50.3976 47.2222 45.5233 47.2222 38.6905V38.4947C47.2265 37.9037 47.1746 37.3136 47.0672 36.7321V36.0575C47.0672 35.7964 46.9564 35.5135 46.8678 35.2524C46.7805 34.9117 46.6695 34.5772 46.5356 34.2514C46.448 33.9673 46.3368 33.6908 46.2033 33.4245C46.0275 33.0248 45.8201 32.6392 45.5831 32.2712L45.3838 31.9666C45.0936 31.5197 44.7755 31.0909 44.4314 30.6827C44.1754 30.3911 43.9017 30.115 43.6119 29.8558C41.5637 28.0737 39.001 26.9632 36.2804 26.6788C33.8431 26.3616 31.366 26.5192 28.9907 27.1427C26.6154 27.7663 24.3884 28.8435 22.437 30.3128L21.7504 30.835L21.5953 30.9874C19.3626 32.9778 17.5294 35.3619 16.1909 38.016C14.5608 41.1092 13.4678 44.4482 12.9571 47.8951C12.802 49.0049 12.6913 50.0712 12.647 51.268C12.6249 51.6739 12.6249 52.0807 12.647 52.4866V52.9653C12.626 55.9075 13.0286 58.8379 13.843 61.6694C14.0192 62.1419 14.37 62.5318 14.8256 62.7616C15.2812 62.9915 15.8081 63.0444 16.3016 62.9098ZM19.5576 39.9091C20.6579 37.7149 22.1595 35.7381 23.9875 34.0773L24.1425 33.9468C24.2273 33.861 24.3243 33.7877 24.4305 33.7292L24.6077 33.5986C26.1412 32.4359 27.893 31.5818 29.763 31.0852C31.6329 30.5886 33.5842 30.4592 35.5052 30.7045C37.4022 30.904 39.1936 31.6626 40.6438 32.8805C40.821 33.0328 40.9761 33.2069 41.1533 33.381C41.6018 33.8885 41.9679 34.461 42.2386 35.0783C42.3794 35.3515 42.4979 35.6353 42.593 35.927L42.8145 36.6451V37.0585C42.8359 37.2901 42.8359 37.5232 42.8145 37.7548C42.8372 38.0736 42.8372 38.3935 42.8145 38.7123C42.8145 47.6993 33.4674 52.3995 25.2943 52.3995C22.1506 52.3749 19.0562 51.6298 16.2573 50.2235C16.6722 46.6089 17.7927 43.1068 19.5576 39.9091Z" fill="white"/>
<path d="M11.5842 52.9672L11.5842 51.3135C11.5842 50.1819 11.7614 49.0069 11.9165 47.8753C12.4539 44.3261 13.5761 40.8864 15.2389 37.6915C16.6346 34.9442 18.5429 32.4788 20.8648 30.4236L21.0199 30.2713C21.3078 30.0536 21.5293 29.8578 21.7951 29.6837C23.833 28.1474 26.16 27.022 28.6422 26.3722C31.1244 25.7224 33.7128 25.5611 36.2587 25.8974C39.1724 26.2084 41.9179 27.3937 44.1217 29.292L44.2989 29.4879C44.5426 29.7272 44.7862 29.9666 45.0077 30.2277C45.3728 30.6403 45.699 31.0846 45.9823 31.5551C46.0725 31.6441 46.1473 31.747 46.2038 31.8597C46.465 32.2814 46.7016 32.7173 46.9126 33.1653C47.0538 33.4609 47.1722 33.7664 47.2669 34.0793C47.4049 34.4207 47.5233 34.7694 47.6213 35.1238C47.7135 35.4002 47.7802 35.6843 47.8207 35.9724V36.7776C47.9246 37.3745 47.9838 37.9782 47.9979 38.5837V38.8013C47.9979 45.4382 44.3432 50.813 37.4547 54.3599C33.7673 56.2441 29.6726 57.2293 25.5162 57.2323C22.7668 57.2343 20.0357 56.7932 17.4317 55.9266C17.5872 57.4354 17.8762 58.928 18.2955 60.3875C18.4944 61.0858 18.4151 61.8323 18.0735 62.475C17.732 63.1178 17.154 63.6086 16.4571 63.8474C16.075 63.9743 15.6706 64.0233 15.2685 63.9915C14.8664 63.9597 14.4752 63.8478 14.1186 63.6625C13.7621 63.4771 13.4478 63.2224 13.1948 62.9137C12.9419 62.6051 12.7556 62.249 12.6474 61.8672C11.8746 58.9633 11.5167 55.968 11.5842 52.9672ZM46.3145 38.6054C46.3036 38.0656 46.2517 37.5274 46.1595 36.9952V36.3206L46.0044 35.646C45.9174 35.3194 45.8063 34.9994 45.6722 34.6886C45.597 34.4276 45.5007 34.1729 45.3842 33.927C45.2144 33.5534 45.0221 33.1901 44.8083 32.839L44.5869 32.5561C44.3425 32.1405 44.0608 31.7473 43.7452 31.381C43.5571 31.1676 43.3574 30.9642 43.1471 30.7717L42.97 30.5976C41.0619 28.9494 38.6762 27.9297 36.1479 27.6818C33.831 27.3774 31.4757 27.5264 29.2177 28.1202C26.9596 28.714 24.8435 29.7409 22.9912 31.1417L22.371 31.6204L22.2159 31.7727C20.0579 33.6821 18.2912 35.9791 17.0109 38.5401C15.4303 41.5463 14.3675 44.789 13.8656 48.1365C13.7054 49.2258 13.6019 50.3225 13.5555 51.4222C13.5346 51.8137 13.5346 52.2059 13.5555 52.5973V52.9672C13.5487 55.8127 13.9362 58.6457 14.7073 61.3885C14.7459 61.5415 14.8172 61.6847 14.9165 61.8085C15.0158 61.9323 15.1408 62.0339 15.2832 62.1066C15.5607 62.2144 15.8695 62.2144 16.147 62.1066C16.4021 62.0129 16.6132 61.8303 16.7398 61.5934C16.8665 61.3566 16.8999 61.0822 16.8337 60.8227C16.2594 58.7837 15.9104 56.6899 15.7926 54.5775V53.1849L17.1216 53.7071C19.9383 54.8156 22.947 55.3773 25.9813 55.3609C29.8363 55.3622 33.6349 54.4517 37.056 52.7061C39.8334 51.5085 42.2062 49.5587 43.8968 47.0847C45.5873 44.6107 46.5259 41.7149 46.6025 38.736L46.3145 38.6054ZM15.6597 50.7912V50.1819C15.9832 46.4409 17.0438 42.7974 18.7828 39.4541C19.9304 37.1544 21.5083 35.0875 23.4342 33.3612L23.5892 33.2306C23.7316 33.0838 23.8959 32.959 24.0765 32.8607C27.3541 30.3879 31.4959 29.2924 35.5942 29.8143C37.686 30.0192 39.6643 30.8467 41.2645 32.1861C41.4534 32.3637 41.631 32.5527 41.796 32.7519C42.328 33.3125 42.7554 33.9607 43.0585 34.6668C43.2087 34.9713 43.3418 35.2837 43.4572 35.6025C43.5469 35.8664 43.6209 36.1353 43.6787 36.4076C43.7344 36.5699 43.7716 36.7378 43.7895 36.9081L43.9002 37.648C43.925 37.9885 43.925 38.3302 43.9002 38.6707C43.9002 47.7883 34.531 53.2501 25.4498 53.2501C22.1746 53.26 18.9427 52.5147 16.0141 51.0741L15.6597 50.7912ZM42.239 38.6272V36.8428C42.1851 36.6121 42.111 36.3865 42.0175 36.1683C41.935 35.8926 41.8314 35.6234 41.7074 35.3632C41.4633 34.8345 41.1425 34.3434 40.755 33.9052L40.312 33.4482C38.9887 32.3752 37.3687 31.7158 35.6607 31.5551C32.0348 31.0953 28.3712 32.0655 25.4719 34.2534L24.896 34.7103C23.1389 36.2919 21.6968 38.181 20.6434 40.281C19.1105 43.2306 18.1419 46.4316 17.7861 49.7249C20.3221 50.839 23.0704 51.4102 25.8484 51.4005C33.8444 51.357 42.2833 46.5915 42.2833 38.5837L42.239 38.6272Z" fill="#E4C27C"/>
<path d="M16.6111 50.2031L16.6111 51.4435C16.5554 52.4582 16.5554 53.4752 16.6111 54.4899" fill="white"/>
<path d="M15.5722 52.835V51.4206C15.5495 50.9929 15.5495 50.5644 15.5722 50.1367L17.3885 50.2891L17.3885 51.4859C17.3885 52.5521 17.3885 53.5313 17.3885 54.4453H15.5501L15.5722 52.835Z" fill="#E4C27C"/>
<path d="M23.6116 34.4471C23.1686 34.1643 22.7478 33.8604 22.327 33.5557C22.084 33.4084 21.8543 33.241 21.6404 33.0553L21.4853 32.9029L20.4442 31.9665C18.6607 30.1769 17.1667 28.1294 16.0143 25.8953C14.4332 22.7774 13.3856 19.4258 12.9135 15.9734C12.7584 14.8419 12.6477 13.7974 12.6034 12.5788C12.5817 12.1801 12.5817 11.7806 12.6034 11.382V11.0773C12.5984 8.13608 13.0007 5.20785 13.7994 2.3732C13.9241 1.90823 14.2166 1.50293 14.6225 1.23431C15.0285 0.965698 15.52 0.851358 16.0055 0.912636C16.4909 0.973914 16.937 1.2066 17.2607 1.56731C17.5843 1.92802 17.7632 2.39209 17.7642 2.87291V3.37342C17.1994 5.32475 16.8576 7.33182 16.7453 9.35751C16.69 10.365 16.69 11.3747 16.7453 12.3822V13.6443C17.0564 17.2769 18.0793 20.8162 19.7576 24.0675C20.7771 26.0574 22.1074 27.8783 23.7002 29.464L24.2318 29.921L24.3647 30.0298C24.4704 30.0976 24.5671 30.178 24.6526 30.2692L24.8298 30.3997C25.6288 31.0078 26.4899 31.5329 27.3991 31.9665C29.989 33.1817 32.8792 33.6424 35.7273 33.2939C37.1733 32.9902 38.5946 32.5829 39.98 32.0752C40.2989 32.2685 40.5959 32.4947 40.866 32.7498C41.0432 32.9022 41.1982 33.0762 41.3754 33.2503C41.824 33.7578 42.1901 34.3303 42.4607 34.9476C40.5994 36.1479 38.4731 36.894 36.2589 37.1237C31.853 37.7446 27.3665 36.7951 23.6116 34.4471Z" fill="white"/>
<path d="M11.5825 11.3819V11.0772C11.5739 8.05558 11.9837 5.04683 12.8008 2.13374C12.9101 1.74357 13.1004 1.37992 13.3595 1.06538C13.6187 0.75084 13.9413 0.492304 14.3069 0.305981C14.649 0.14138 15.0209 0.0450664 15.4011 0.022655C15.7813 0.000243707 16.1622 0.0521849 16.5219 0.175425C17.0963 0.366421 17.5953 0.7294 17.9488 1.21337C18.3024 1.69734 18.4928 2.27796 18.4932 2.87368C18.4982 3.1406 18.4531 3.40615 18.3603 3.65705C17.8209 5.53082 17.4941 7.45743 17.3857 9.40178C17.3857 10.3375 17.3857 11.2949 17.3857 12.3612V13.5798C17.6942 17.0911 18.6868 20.5115 20.3094 23.6548C21.2771 25.5598 22.5482 27.3008 24.0748 28.812L24.3849 29.0731L24.5843 29.2472L24.8944 29.5083L25.0937 29.6606C28.0033 31.8643 31.6812 32.8498 35.3267 32.4024C36.7452 32.1142 38.1378 31.7139 39.4908 31.2056L39.9117 31.0533L40.2882 31.2926C40.6599 31.5204 41.0085 31.7828 41.3292 32.076L41.8608 32.62C42.387 33.1931 42.8136 33.8474 43.1233 34.5567L43.4334 35.2313L42.8132 35.6665C40.8317 36.9916 38.5506 37.8208 36.1684 38.0819C31.5789 38.6879 26.9202 37.6614 23.0338 35.1878C22.5732 34.9008 22.1295 34.5884 21.7048 34.252C21.4431 34.1038 21.1981 33.9288 20.9739 33.7298L20.7967 33.5557C20.398 33.2076 20.0436 32.9029 19.7114 32.5765C17.8851 30.7161 16.3544 28.5961 15.1708 26.2878C13.5021 23.0893 12.3868 19.6404 11.8705 16.0822C11.6933 14.9289 11.5825 13.7538 11.5161 12.6005L11.5825 11.3819ZM16.7434 2.91721C16.7355 2.69253 16.6596 2.47524 16.5255 2.29308C16.3913 2.11093 16.205 1.97216 15.9903 1.89447C15.7207 1.78565 15.4182 1.78565 15.1486 1.89447C15.0069 1.96246 14.882 2.05997 14.7825 2.18022C14.683 2.30048 14.6114 2.44062 14.5727 2.59082C13.7923 5.34702 13.3974 8.19474 13.3988 11.0556V11.3602C13.3767 11.7298 13.3767 12.1004 13.3988 12.47C13.4452 13.5914 13.5487 14.7098 13.7089 15.8211C14.2108 19.1823 15.2734 22.4393 16.8541 25.4609C17.9398 27.6025 19.3514 29.569 21.0403 31.2926C21.3726 31.619 21.6827 31.9019 22.0149 32.1848L22.2143 32.3589C22.3915 32.4895 22.5687 32.6418 22.768 32.7724C22.9673 32.9029 23.6318 33.4034 24.0527 33.6645C27.5816 35.9019 31.8048 36.835 35.9691 36.2975C37.7817 36.095 39.5316 35.5245 41.1077 34.622C40.9392 34.345 40.7465 34.0829 40.5318 33.8386L40.0889 33.3816L39.6901 33.0553C38.3875 33.5339 37.0465 33.9051 35.6811 34.165C32.6508 34.5454 29.5732 34.054 26.8213 32.7506C25.8542 32.2905 24.9408 31.7287 24.097 31.0751L23.2774 30.4222L22.8788 30.0741C21.2173 28.429 19.834 26.5337 18.7811 24.4599C17.0362 21.1112 15.9753 17.4594 15.6581 13.7103L15.5473 12.4047C15.5473 11.2949 15.5473 10.2287 15.5473 9.27122C15.6781 7.18723 16.0345 5.12285 16.6105 3.11305L16.7434 2.91721Z" fill="#E4C27C"/>
</svg>
